<svg xmlns="http://www.w3.org/2000/svg" viewBox="0 0 64 64">
  <defs>
    <linearGradient id="g" x1="0%" y1="0%" x2="100%" y2="100%">
      <stop offset="0%" stop-color="#5d7bff"/>
      <stop offset="100%" stop-color="#36e4c2"/>
    </linearGradient>
  </defs>
  <path d="M32 4 L56 16 V34 C56 48 44 58 32 62 C20 58 8 48 8 34 V16 Z" fill="url(#g)" opacity="0.95"/>
  <path d="M32 18 C28 18 24 20 24 24 V27 H22 C21 27 20 28 20 29 V39 C20 40 21 41 22 41 H42 C43 41 44 40 44 39 V29 C44 28 43 27 42 27 H40 V24 C40 20 36 18 32 18 Z M28 24 C28 22 30 20 32 20 C34 20 36 22 36 24 V27 H28 Z M33 34.7 V37 H31 V34.7 C30 34.3 29 33.3 29 32 C29 30.3 30.3 29 32 29 C33.7 29 35 30.3 35 32 C35 33.3 34 34.3 33 34.7 Z" fill="#050714"/>
</svg>
